# Blender v2.76 (sub 0) OBJ File: 'cygnet.blend'
# www.blender.org
g LowMesh_Cube.001
v -5.972888 -8.035956 -1.000000
v -5.972888 -8.035956 1.000000
v -0.984399 8.149033 -1.000000
v -0.984399 8.149033 1.000000
v 5.999624 -8.035956 -1.000000
v 5.999624 -8.035956 1.000000
v 1.011135 8.149033 -1.000000
v 1.011135 8.149033 1.000000
vn -0.955600 0.294500 0.000000
vn 0.000000 1.000000 0.000000
vn 0.955600 0.294500 0.000000
vn 0.000000 -1.000000 0.000000
vn 0.000000 0.000000 -1.000000
vn 0.000000 0.000000 1.000000
s off
f 1//1 2//1 4//1 3//1
f 3//2 4//2 8//2 7//2
f 7//3 8//3 6//3 5//3
f 5//4 6//4 2//4 1//4
f 3//5 7//5 5//5 1//5
f 8//6 4//6 2//6 6//6
